<?xml version="1.0" standalone="no"?><!DOCTYPE svg PUBLIC "-//W3C//DTD SVG 1.1//EN" "http://www.w3.org/Graphics/SVG/1.1/DTD/svg11.dtd"><svg t="1649070933791" class="icon" viewBox="0 0 1024 1024" version="1.1" xmlns="http://www.w3.org/2000/svg" p-id="23474" xmlns:xlink="http://www.w3.org/1999/xlink" width="200" height="200"><defs><style type="text/css">@font-face { font-family: feedback-iconfont; src: url("//at.alicdn.com/t/font_1031158_u69w8yhxdu.woff2?t=1630033759944") format("woff2"), url("//at.alicdn.com/t/font_1031158_u69w8yhxdu.woff?t=1630033759944") format("woff"), url("//at.alicdn.com/t/font_1031158_u69w8yhxdu.ttf?t=1630033759944") format("truetype"); }
</style></defs><path d="M943.3 873.1c5.4-1.1 8.9-6.4 7.8-11.8-8.5-42.3-23.1-83.1-43.4-121.3-2.6-4.9-8.6-6.7-13.5-4.1-4.9 2.6-6.7 8.6-4.1 13.5 19.4 36.5 33.4 75.5 41.5 115.9 1 4.7 5.1 8 9.8 8 0.6 0 1.3 0 1.9-0.2zM721.3 553.8c-41.2-21.8-85.8-37-131.7-45.1 31.6-11.2 60.5-29.5 84.9-53.9 43.3-43.3 67.1-100.8 67.1-161.9S717.8 174.2 674.5 131s-100.8-67-162-67-118.7 23.8-161.9 67.1-67.1 100.7-67.1 161.9 23.8 118.7 67.1 161.9c24.3 24.3 53 42.4 84.4 53.7-33.4 5.8-65.9 15.4-97.3 28.7-53.4 22.6-101.3 54.9-142.4 96.1-41.1 41.2-73.4 89.1-96 142.5C75.8 831.2 64 889.9 64 950.5c0 5.5 4.5 10 10 10s10-4.5 10-10C84 714.2 276 522 512 522c138.7 0 269.5 67.8 349.7 181.3 3.2 4.5 9.4 5.6 13.9 2.4 4.5-3.2 5.6-9.4 2.4-13.9-40.6-57.4-94.8-105.1-156.7-138zM303.5 293c0-115.2 93.8-209 209-209s209 93.8 209 209-93.8 209-209 209-209-93.8-209-209z" fill="" p-id="23475"></path><path d="M949.3 927.3m-10 0a10 10 0 1 0 20 0 10 10 0 1 0-20 0Z" fill="" p-id="23476"></path></svg>